# xmcd
#
# Track frame offsets:
#	150
#	17699
#	33009
#	49291
#	65197
#	82145
#	96887
#	114182
#	131274
#	147292
#	163816
#	181187
#	199598
#	218914
#
# Disc length: 3104 seconds
#
# Revision: 19
# Processed by: cddbd v1.5.2PL0 Copyright (c) Steve Scherf et al.
# Submitted via: EasyCDDAExtractor 15.3.0.1
#
DISCID=c10c1e0e
DTITLE=Eros Ramazzotti - Somos
DYEAR=2012
DGENRE=Latin
TTITLE0=Ahora Somos
TTITLE1=Un Angel Como El Sol Tu Eres
TTITLE2=Este Tiempo Tan Nuestro
TTITLE3=Yo Soy Tu (Featuring Andy Garcia)
TTITLE4=Hasta El Extasis (Featuring Nicole Scherzinger)
TTITLE5=Abrazame
TTITLE6=Baila Solo Con Tu Musica
TTITLE7=Amigo Mio
TTITLE8=Dos Minutos
TTITLE9=Bajo El Mismo Cielo
TTITLE10=Una Tormenta De Estrellas
TTITLE11=Testa O Cuore (Featuring Club Dogo)
TTITLE12=Asi (Featuring Il Volo)
TTITLE13=Uno Mas (Featuring Hooverphonic)
EXTD=YEAR: 2012 en Minuscule
EXTT0=
EXTT1=
EXTT2=
EXTT3=
EXTT4=
EXTT5=
EXTT6=
EXTT7=
EXTT8=
EXTT9=
EXTT10=
EXTT11=
EXTT12=
EXTT13=
PLAYORDER=
